ply
format ascii 1.0
comment Created in Blender version 4.5.3 LTS
element vertex 486
property float x
property float y
property float z
property float nx
property float ny
property float nz
element face 912
property list uchar uint vertex_indices
end_header
-0.033515118 0.11648474 0.27493912 -0.544053 0.5859375 0.60056937
-0.010675747 0.013339382 0.33545423 -0.20624316 -0.02066418 0.97828245
0.031151485 0.113939285 0.27906033 0.6479312 0.45130488 0.61360335
0.004151511 -0.01706665 0.3251512 0.35409534 -0.64970857 0.67267764
0.060909033 0.1364544 0.17839377 0.8603617 0.49101642 -0.13667706
0.0023675736 0.1585453 0.2058786 -0.07109208 0.9962028 0.050257135
-0.02201816 0.11336353 0.116333224 -0.16491777 0.6875433 -0.7071678
-0.08451507 0.096333236 0.15363622 -0.8446055 0.46667945 -0.26239625
-0.027833307 0.07278781 0.09936354 -0.29126304 0.0093863 -0.9565969
0.043787837 0.06481812 0.10284839 0.6947679 -0.096328765 -0.712754
-0.09436355 0.045393895 0.16015136 -0.95973516 -0.17036472 -0.2233482
-0.039909054 -0.03845451 0.25409067 -0.47310475 -0.8387306 0.26963475
-0.025878763 -0.03996966 0.1526059 -0.00059229706 -0.8946211 -0.4468251
-0.028336337 0.16203015 0.018672708 -0.32244453 0.92168343 0.2157064
-0.024799976 0.07945447 0.09803021 -0.17720065 0.42104012 0.8895646
0.014772713 0.16754529 -0.0067909025 0.21733224 0.9713871 -0.095779665
0.09675749 0.08351507 0.0494848 0.826473 0.314653 0.46683595
0.09736355 0.034696937 -0.07781811 0.88928 0.062124 -0.45312425
-0.06818175 0.036606025 0.0838484 -0.5896506 -0.13278843 0.79666775
0.009772718 0.025269672 0.10069687 0.16984713 -0.30023363 0.9386222
0.04103026 -0.052272677 0.033484817 0.33285993 -0.8200777 0.46548563
0.0057181767 0.0343333 -0.17530286 0.00022689467 0.068638876 -0.99764156
-0.11021202 0.0816969 0.010075748 -0.90091985 0.42893416 0.06602107
-0.11230293 0.02707876 -0.016521197 -0.95038855 -0.19479997 -0.2425171
-0.013109078 -0.026475733 -0.12409078 -0.22533824 -0.73396957 -0.64071155
-0.09072719 -0.014721198 0.027342398 -0.6966819 -0.65642226 0.28938565
0.003793936 -0.06299994 -0.045757532 -0.066308975 -0.97835 -0.19604725
0.08654537 -0.022603009 -0.035969663 0.7978808 -0.59184635 -0.11447294
0.07030296 0.11312111 0.2463634 0.26855215 0.770751 -0.5777739
0.061545394 0.11275747 0.2756058 -0.094982736 0.81037503 0.57816136
0.08542416 0.1080908 0.2586967 0.75469464 0.65605843 -0.0048120148
0.060424183 0.07821205 0.29427245 -0.12440362 0.02257118 0.9919749
0.07999992 0.075484775 0.28915122 0.57387495 -0.10072208 0.8127253
0.09657567 0.07660599 0.25378764 0.9271116 -0.17765918 -0.3300018
0.049333286 0.075484775 0.22781797 -0.32646653 -0.30096126 -0.89601445
0.049090862 0.11275747 0.25072703 -0.56397784 0.774539 -0.28638834
0.029903002 0.074878715 0.27012095 -0.960533 -0.22432078 0.16448821
0.04703026 0.06381812 0.28527245 -0.480529 -0.66903996 0.5669897
0.08051508 0.053757526 0.27024218 0.38123882 -0.9184876 0.10505903
-0.054696918 0.11312111 0.2463634 0.26855206 0.7707509 -0.577774
-0.06345449 0.11275747 0.2756058 -0.095012195 0.8103678 0.5781666
-0.03957572 0.1080908 0.2586967 0.7546945 0.65605855 -0.0048119863
-0.064575695 0.07821205 0.29427245 -0.12443817 0.022578724 0.99197036
-0.044999957 0.075484775 0.28915122 0.57397246 -0.100882605 0.8126366
-0.028424216 0.07660599 0.25378764 0.92709965 -0.17789169 -0.32991007
-0.07566659 0.075484775 0.22781797 -0.32648745 -0.30095 -0.89601064
-0.07590902 0.11275747 0.25072703 -0.5640167 0.77451754 -0.28636983
-0.09509082 0.074878715 0.27012095 -0.9605369 -0.22430563 0.16448627
-0.07796962 0.06381812 0.28527245 -0.48062196 -0.6689451 0.56702286
-0.044515107 0.053757526 0.27024218 0.38063204 -0.9187497 0.1049673
0.04693935 0.11024232 0.20615132 0.6627961 -0.5977952 -0.45093483
0.041060567 0.11024232 0.20303011 -0.03750256 -0.56332904 -0.82538104
0.043151475 0.15533318 0.20857556 -0.032413136 0.24633922 -0.96864146
0.048939347 0.15403016 0.21154524 0.82987624 0.061221022 -0.5545785
0.03542421 0.11024232 0.20651495 -0.7123609 -0.571812 -0.40690672
0.037484813 0.15499985 0.21203011 -0.8587049 0.1993186 -0.47212052
0.03563633 0.11024232 0.21318161 -0.68453 -0.6175019 0.38744026
0.037606027 0.15336348 0.21848464 -0.87271225 -0.040148884 0.4865814
0.041484807 0.11024232 0.21630283 0.012461115 -0.65624154 0.75444794
0.0434242 0.15206046 0.22145434 0.006997878 -0.24399434 0.9697514
0.04715147 0.11024232 0.21281797 0.6827642 -0.6453722 0.3425314
0.049090862 0.15239379 0.21799979 0.8861469 -0.18935898 0.42295015
0.049242377 0.19733314 0.22487858 -3.0091678e-05 0.47574776 -0.8795817
0.054878734 0.19481799 0.22739373 0.8393833 0.11738512 -0.5307131
0.043545414 0.19666648 0.22821191 -0.8328532 0.38389623 -0.39872184
0.043454506 0.19351497 0.23406038 -0.87848043 -0.0771518 0.47150788
0.049060557 0.19103011 0.23657554 -0.027675394 -0.47101703 0.88168985
0.054787826 0.1916968 0.2332422 0.8597389 -0.36628163 0.35593086
0.058939338 0.23339371 0.25078765 0.055707633 0.6722008 -0.7382701
0.064272664 0.22984827 0.25257552 0.8528458 0.16544256 -0.49526024
0.053151462 0.23248462 0.25393915 -0.78999203 0.54314655 -0.284437
0.052727222 0.22803009 0.25884822 -0.8871575 -0.109428264 0.4483045
0.05806055 0.22448464 0.26063612 -0.080187924 -0.66621375 0.7414372
0.06384843 0.22542404 0.25748459 0.82019126 -0.51696664 0.24501385
0.07157569 0.26106036 0.2845755 0.121857285 0.82398224 -0.5533571
0.07654538 0.25675732 0.28536335 0.86825913 0.20550288 -0.4515469
0.06569691 0.25993913 0.2874846 -0.7335169 0.66601276 -0.13557275
0.06478782 0.2544846 0.29115123 -0.8984235 -0.13356715 0.4183241
0.06978781 0.25015128 0.29196942 -0.14611004 -0.8168261 0.5580742
0.07566659 0.2513028 0.28906032 0.7680163 -0.632157 0.10260802
0.08627264 0.27845427 0.32393909 0.20193678 0.9187551 -0.3392795
0.090848394 0.2736361 0.32363605 0.8888689 0.22762969 -0.39761382
0.08027265 0.27721184 0.32666636 -0.67236817 0.73907 0.041187614
0.07887871 0.27112094 0.32878757 -0.9102922 -0.15425402 0.3841533
0.083424166 0.2663028 0.32848454 -0.22625493 -0.9111405 0.34442934
0.089393854 0.2675755 0.32575727 0.70708793 -0.7044394 -0.061577607
0.10206051 0.28439367 0.36606026 0.29073083 0.95049614 -0.10969345
0.10615142 0.27939367 0.3645451 0.9116781 0.23112553 -0.33974105
0.09596961 0.28309065 0.3684845 -0.60072285 0.7667201 0.22643355
0.093969606 0.2767876 0.36909056 -0.924661 -0.15881556 0.3460919
0.09806051 0.27181792 0.3675754 -0.3120758 -0.9427054 0.11796218
0.104181714 0.27312094 0.3654542 0.63631123 -0.7335267 -0.23884444
0.117848374 0.27845427 0.40848446 0.3728757 0.91950065 0.12442732
0.12151504 0.2736361 0.4057572 0.9312168 0.23039736 -0.28240457
0.11163626 0.27721184 0.41030264 -0.5344467 0.7393461 0.40955356
0.1090605 0.27112094 0.40939355 -0.9394846 -0.15298006 0.30653843
0.11269686 0.2663028 0.40666628 -0.3953325 -0.91164607 -0.112310566
0.11893928 0.2675755 0.4048481 0.57713884 -0.701613 -0.41791156
0.13254534 0.26106036 0.44757533 0.45888555 0.82335824 0.33392406
0.13578774 0.25675732 0.44393897 0.95100445 0.21233551 -0.224731
0.126212 0.25993913 0.4493935 -0.45846316 0.6689456 0.5850839
0.1231211 0.2544846 0.4472723 -0.95232207 -0.1318006 0.2751567
0.12636352 0.25015128 0.4433329 -0.48111805 -0.8152623 -0.32229298
0.13269685 0.2513028 0.44151473 0.5143629 -0.63198674 -0.57967526
0.14518167 0.23339371 0.4815147 0.5286568 0.67111385 0.5197385
0.14806047 0.22984827 0.4766662 0.96883804 0.16353506 -0.18603534
0.13875744 0.23248462 0.48302984 -0.41041613 0.54163355 0.73361546
0.13521199 0.22803009 0.47939348 -0.9646682 -0.11502972 0.23703006
0.13806048 0.22448464 0.474545 -0.53772455 -0.6695244 -0.5124347
0.14451502 0.22542404 0.47333288 0.4631807 -0.5136649 -0.7222271
0.15487865 0.19733314 0.50727224 0.5742547 -0.08963903 0.8137545
0.1574544 0.19481799 0.5018177 0.89044744 -0.42506415 0.16255382
0.14836349 0.19666648 0.50848436 -0.1981385 -0.1768209 0.9640931
0.14448471 0.19351497 0.50424194 -0.6555901 -0.5939723 0.46626
0.14706047 0.19103011 0.49878737 -0.33402678 -0.9257346 -0.17731744
0.1535756 0.1916968 0.49757528 0.43054375 -0.84107757 -0.3274455
-0.034575727 0.15533318 0.20857556 0.03252412 0.24633783 -0.9686382
-0.03248482 0.11024232 0.20303011 0.037511386 -0.5633227 -0.825385
-0.038363602 0.11024232 0.20615132 -0.6638783 -0.5975677 -0.4496426
-0.0403636 0.15403016 0.21154524 -0.82992256 0.061042488 -0.55452895
-0.028912093 0.15499985 0.21203011 0.85916406 0.19910064 -0.47137663
-0.026848458 0.11024232 0.20651495 0.7122712 -0.5717703 -0.40712208
-0.029045427 0.15336348 0.21848464 0.87247854 -0.040304944 0.48698738
-0.027054518 0.11024232 0.21318161 0.6848629 -0.6172624 0.3872338
-0.03484845 0.15206046 0.22145434 -0.006464695 -0.24387716 0.9697846
-0.032909058 0.11024232 0.21630283 -0.013457828 -0.65618795 0.75447744
-0.040515114 0.15239379 0.21799979 -0.8861768 -0.18957399 0.42279106
-0.038545415 0.11024232 0.21281797 -0.68188787 -0.6460054 0.34308293
-0.04066663 0.19733314 0.22487858 3.1270843e-05 0.47574788 -0.8795817
-0.046302985 0.19481799 0.22739373 -0.8393829 0.11738563 -0.53071374
-0.034969665 0.19666648 0.22821191 0.8328621 0.38387722 -0.3987217
-0.034878757 0.19351497 0.23406038 0.87848485 -0.07722346 0.47148788
-0.04048481 0.19103011 0.23657554 0.027711539 -0.47105476 0.8816685
-0.046212077 0.1916968 0.2332422 -0.85973907 -0.3662819 0.35593012
-0.050363585 0.23339371 0.25078765 -0.0557071 0.67220104 -0.73826987
-0.05569692 0.22984827 0.25257552 -0.8528461 0.1654428 -0.4952597
-0.044575714 0.23248462 0.25393915 0.78999233 0.5431461 -0.28443682
-0.044151474 0.22803009 0.25884822 0.8871577 -0.10942833 0.44830406
-0.0494848 0.22448464 0.26063612 0.080187395 -0.66621387 0.7414371
-0.055272676 0.22542404 0.25748459 -0.8201916 -0.51696604 0.24501373
-0.06299994 0.26106036 0.2845755 -0.12185713 0.823982 -0.5533575
-0.067969635 0.25675732 0.28536335 -0.8682591 0.20550258 -0.45154715
-0.057121158 0.25993913 0.2874846 0.7335173 0.66601235 -0.13557248
-0.056212068 0.2544846 0.29115123 0.8984234 -0.13356736 0.41832426
-0.061212063 0.25015128 0.29196942 0.14610927 -0.8168265 0.5580739
-0.06709085 0.2513028 0.28906032 -0.76801646 -0.6321568 0.10260742
-0.07769689 0.27845427 0.32393909 -0.20193693 0.91875535 -0.3392785
-0.08227265 0.2736361 0.32363605 -0.88886935 0.2276304 -0.39761245
-0.0716969 0.27721184 0.32666636 0.6723679 0.73907036 0.04118832
-0.07030296 0.27112094 0.32878757 0.9102922 -0.15425356 0.38415346
-0.07484841 0.2663028 0.32848454 0.22625472 -0.91114086 0.34442863
-0.08081811 0.2675755 0.32575727 -0.7070885 -0.70443887 -0.06157759
-0.09348476 0.28439367 0.36606026 -0.2907347 0.9504919 -0.1097195
-0.097575665 0.27939367 0.3645451 -0.9117539 0.23103474 -0.3395993
-0.08739386 0.28309065 0.3684845 0.6007474 0.7667122 0.22639532
-0.08539386 0.2767876 0.36909056 0.92460775 -0.15889965 0.34619558
-0.089484766 0.27181792 0.3675754 0.31209704 -0.94267577 0.11814309
-0.09560597 0.27312094 0.3654542 -0.6364454 -0.7334573 -0.23869969
-0.10927262 0.27845427 0.40848446 -0.374496 0.9189105 0.12391998
-0.11290898 0.2736361 0.4057572 -0.9312135 0.23038623 -0.28242442
-0.103030205 0.27721184 0.41030264 0.53581035 0.73836607 0.40953964
-0.10048475 0.27112094 0.40939355 0.93934774 -0.1563098 0.30527535
-0.10415142 0.2663028 0.40666628 0.39354494 -0.9122711 -0.113506466
-0.11036353 0.2675755 0.4048481 -0.5787522 -0.7000765 -0.41825667
-0.123969585 0.26106036 0.44757533 -0.45891523 0.8234012 0.3337773
-0.127212 0.25675732 0.44393897 -0.9509422 0.21249366 -0.22484502
-0.11763625 0.25993913 0.4493935 0.4583457 0.66892076 0.5852045
-0.114545345 0.2544846 0.4472723 0.95227236 -0.13196114 0.2752517
-0.11778777 0.25015128 0.4433329 0.48112947 -0.81525296 -0.32229945
-0.1241211 0.2513028 0.44151473 -0.5143751 -0.6319898 -0.5796612
-0.13660593 0.23339371 0.4815147 -0.52865744 0.67111343 0.5197385
-0.13948472 0.22984827 0.4766662 -0.9688278 0.1623464 -0.18712686
-0.1301817 0.23248462 0.48302984 0.41037077 0.5417652 0.7335436
-0.12663624 0.22803009 0.47939348 0.9647254 -0.114943795 0.23683931
-0.12948471 0.22448464 0.474545 0.5378023 -0.6694706 -0.5124235
-0.13590896 0.22542404 0.47333288 -0.46138796 -0.51490134 -0.7224941
-0.1463029 0.19733314 0.50727224 -0.5742243 -0.08978571 0.8137598
-0.14887865 0.19481799 0.5018177 -0.89024734 -0.42594364 0.1613429
-0.13978775 0.19666648 0.50848436 0.1967634 -0.17707261 0.96432847
-0.13587867 0.19351497 0.50424194 0.65660095 -0.59317577 0.46585152
-0.13848472 0.19103011 0.49878737 0.33269155 -0.92614615 -0.17767811
-0.14496955 0.1916968 0.49757528 -0.42911252 -0.84159917 -0.3279835
-0.04603026 -0.06878781 0.09057567 0.51935214 -0.8318849 0.19555256
-0.060212065 -0.03278785 0.10327263 0.81439275 0.48403046 0.32012308
-0.08209083 -0.060272668 0.10715141 -0.14710577 -0.84723514 0.5104434
-0.04584844 -0.06845448 0.09012113 0.80703866 -0.35175464 -0.47429663
-0.07648478 -0.046545412 0.074878715 0.09086181 -0.15902123 -0.98308516
-0.13084835 -0.01191817 0.12687866 -0.12422868 -0.3561144 0.92614776
-0.14218168 -0.018799983 0.09463627 -0.6279548 -0.6899961 -0.35996953
-0.19012104 0.02796058 0.12645443 -0.6964427 -0.43467867 0.57098335
-0.16766651 0.05612116 0.12251504 0.43707338 0.80906844 0.39290598
-0.18436347 0.042030264 0.09339385 -0.34812215 0.18793839 -0.9184172
-0.20739374 0.06906054 0.12166654 0.062865525 0.9423037 0.32880315
-0.2069695 0.059302974 0.121575646 0.23486383 -0.5943528 0.7691448
-0.20866647 0.06418176 0.11324231 -0.05354997 0.47630447 -0.87764823
-0.22836341 0.04078784 0.14115138 0.14384975 0.30470753 0.94152033
-0.2190604 0.029342396 0.1302423 0.8552553 -0.50271535 0.12576026
-0.24403009 0.052242372 0.115787774 -0.5763043 0.79808354 -0.1758863
-0.23475736 0.04078784 0.104848385 0.16232553 -0.011919497 -0.9866652
-0.27530277 -0.006006055 0.15387864 -0.044470903 0.067031905 0.99675924
-0.28324217 -0.006006055 0.10899989 -0.1382841 -0.06765122 -0.98807937
-0.2636967 -0.02240301 0.12869686 0.62318254 -0.7722524 -0.12357109
-0.33060575 -0.046302985 0.15618166 -0.38057554 0.3348281 0.8620049
-0.31484818 -0.06393933 0.14687864 0.5430318 -0.67507535 0.49938923
-0.33575726 -0.046302985 0.12569684 -0.721224 0.28306293 -0.63222724
-0.31787848 -0.06393933 0.12909079 0.34470832 -0.7107924 -0.6131478
-0.35090876 -0.07603023 0.14448471 -0.42393607 0.22077799 0.8783708
-0.35060573 -0.076454476 0.14424229 0.6357729 -0.50663614 0.5823337
-0.3512118 -0.07603023 0.14369683 -0.7664194 0.3558436 -0.5347678
-0.35060573 -0.076454476 0.14375743 0.3989565 -0.58628446 -0.70505613
-0.3754542 -0.10745444 0.15966652 -0.21925181 0.532926 0.81726277
-0.3615148 -0.11672716 0.1525453 0.9074338 -0.24218343 0.3433818
-0.37939358 -0.10745444 0.13781805 -0.43559107 0.5015156 -0.7474907
-0.38999963 -0.14554532 0.17036349 0.19607963 0.1016292 0.9753072
-0.38121176 -0.15424228 0.13957562 0.67179877 -0.34357333 -0.65623444
-0.4087875 -0.13684835 0.14445442 -0.7610145 0.5318802 -0.37143022
-0.39727235 -0.189818 0.16303015 0.75075537 -0.49841285 0.43353307
-0.44787836 -0.20615132 0.17099984 -0.6880016 0.3153317 0.6536204
-0.4390905 -0.21490888 0.14006048 -0.28951427 -0.08776589 -0.95314145
-0.46515107 -0.24369673 0.17081802 -0.7285532 0.27169576 0.6288017
-0.4463632 -0.2554543 0.167515 0.68573654 -0.64951974 0.3284653
-0.45909047 -0.24957553 0.14999986 -0.24943306 -0.23152721 -0.9403075
-0.47818136 -0.28418157 0.1667574 -0.638069 -0.37800837 0.6708038
-0.47787833 -0.28439367 0.16657561 0.18184108 -0.92355835 0.33759984
-0.47818136 -0.28409064 0.166515 -0.97563446 0.2171297 -0.0314958
-0.47818136 -0.28418157 0.16624227 -0.83976156 -0.3047421 -0.4493691
-0.47787833 -0.28433308 0.16618167 0.11998178 -0.8216341 -0.5572447
-0.046121165 -0.06854539 -0.03757572 0.8331323 -0.19547917 -0.5173765
-0.04603026 -0.06842417 -0.037302993 0.9971855 0.033057626 -0.06729116
-0.046121165 -0.06854539 -0.03703027 0.7617729 -0.28557777 0.58150446
-0.04633329 -0.06878781 -0.03703027 0.20609865 -0.83449847 0.51101434
-0.04633329 -0.06878781 -0.03757572 0.2509583 -0.8773499 -0.4089951
-0.062454488 -0.03278785 -0.026987854 0.78295857 0.4255061 0.45378444
-0.07357568 -0.046545412 -0.05778782 0.32020164 -0.20302737 -0.9253382
-0.09339385 -0.01503938 -0.016733319 0.35255745 0.2954861 0.88791394
-0.09339385 -0.01503938 -0.057878733 0.39803827 0.45732406 -0.7952485
-0.113908984 -0.0403939 -0.049333286 -0.48098996 -0.7888839 -0.3825059
-0.1686968 0.0038090872 -0.025221188 -0.54928976 -0.5663077 0.61447227
-0.1716665 0.05612116 -0.026721187 0.34113818 0.8014508 0.4912243
-0.19445436 0.02796058 -0.026721187 -0.71771145 -0.48403797 0.50059706
-0.18306042 0.042030264 -0.058302976 -0.19839662 0.17130937 -0.96503466
-0.21060586 0.06906054 -0.034454513 -0.080339745 0.93220717 0.3528956
-0.21021192 0.059302974 -0.04018178 0.009663377 -0.9173839 -0.39788595
-0.21039373 0.06418176 -0.042969655 -0.064219765 0.58455306 -0.80880994
-0.22357553 0.029342396 -0.028018156 0.773998 -0.39179078 0.49742028
-0.24569672 0.052242372 -0.028018156 -0.34102923 0.8228461 0.45455834
-0.23463614 0.04078784 -0.055757523 0.17644785 0.21375842 -0.9608191
-0.26657552 0.025366643 -0.018339377 -0.2745404 0.32872856 0.9036399
-0.2967573 0.008151507 -0.048818134 -0.5370065 0.57445055 -0.61776245
-0.269424 -0.020163618 -0.048818134 0.54363006 -0.5745606 -0.6118385
-0.32090878 -0.06393933 -0.02826058 0.33497337 -0.8142182 0.47417462
-0.32030272 -0.015848469 -0.026299976 -0.6961479 0.45853734 0.55237806
-0.34242392 -0.041666627 -0.02826058 -0.77186865 0.41571802 0.48103774
-0.33151484 -0.05278783 -0.05524237 -0.23081936 -0.2365467 -0.9438051
-0.35606027 -0.07593932 -0.037060574 -0.75959784 0.44940367 0.47015667
-0.3554542 -0.076454476 -0.037060574 0.5848866 -0.6061452 0.5389763
-0.35575724 -0.07618175 -0.037787843 -0.14599335 -0.017510762 -0.98913056
-0.3866663 -0.10503021 -0.030818151 -0.5301995 0.70133466 0.4764641
-0.36787844 -0.11672716 -0.030818151 0.7992017 -0.17914777 0.57374436
-0.37727237 -0.110878676 -0.050181773 0.044482034 0.28853595 -0.9564352
-0.3987875 -0.14554532 -0.018184831 0.03131068 0.100500815 0.99444413
-0.38484812 -0.15424228 -0.046969652 0.7713633 -0.36159956 -0.52368337
-0.41272688 -0.13684835 -0.046969652 -0.6961409 0.51344645 -0.5017574
-0.4048481 -0.189818 -0.026693914 0.66295713 -0.4985674 0.5584965
-0.45606017 -0.20615132 -0.027618157 -0.79236734 0.31588396 0.52189195
-0.44181776 -0.21490888 -0.056545403 -0.114573106 -0.090491675 -0.98928475
-0.47272682 -0.24369673 -0.03078785 -0.8244059 0.27055547 0.4971465
-0.45393896 -0.2554543 -0.03078785 0.6182195 -0.64631104 0.44731045
-0.4633329 -0.24957553 -0.050242376 -0.08162962 -0.2362494 -0.96825755
-0.48515105 -0.28418157 -0.03703027 -0.69143116 -0.43953708 0.5733498
-0.484545 -0.28439367 -0.03715148 0.34891906 -0.8950742 0.2776647
-0.48515105 -0.28409064 -0.037302993 -0.9714351 0.2303431 -0.057059698
-0.48515105 -0.28418157 -0.03757572 -0.7951067 -0.34508753 -0.4987183
-0.48484802 -0.28433308 -0.03757572 -0.028090116 -0.849811 -0.52633834
-0.046121165 -0.06878781 -0.14903016 0.47059163 -0.77919185 0.414009
-0.06378782 -0.03278785 -0.14193925 0.6559496 0.48350713 0.5796128
-0.08566658 -0.060272668 -0.14581804 -0.31309596 -0.8474025 0.42881212
-0.04584844 -0.06854539 -0.14954531 0.8435563 -0.45757386 -0.28113854
-0.06939387 -0.046545412 -0.17421196 0.42169258 -0.15919511 -0.89265454
-0.13824229 -0.01191817 -0.14393926 -0.43354988 -0.3559053 0.8278683
-0.13787866 -0.018799983 -0.17812103 -0.4670329 -0.6901043 -0.5528437
-0.1937877 0.02796058 -0.16460592 -0.84972274 -0.43432862 0.29888096
-0.17136347 0.05612116 -0.16066651 0.2766195 0.80922496 0.5183016
-0.17709073 0.042030264 -0.19372709 -0.013707032 0.18767412 -0.98213565
-0.20839374 0.06906054 -0.17503014 -0.05315667 0.9425794 0.32972464
-0.2079695 0.059302974 -0.17493922 -0.039036714 -0.5888097 0.8073284
-0.20669678 0.06418176 -0.18336347 0.25011188 0.4758921 -0.8431907
-0.23475736 0.04078784 -0.16387863 -0.18701087 0.3049084 0.93384033
-0.22227252 0.029342396 -0.17093922 0.7606262 -0.502613 0.41088682
-0.24081795 0.052242372 -0.19309074 -0.48066214 0.7981367 -0.36323786
-0.22836341 0.04078784 -0.20015132 0.49020496 -0.01246543 -0.871518
-0.28324217 -0.006006055 -0.16796954 -0.38170648 0.067383006 0.9218241
-0.27530277 -0.006006055 -0.21287858 0.21008843 -0.068626896 -0.9752708
-0.2636967 -0.02240301 -0.18766648 0.6283198 -0.7718381 0.097365975
-0.33575726 -0.046302985 -0.1846968 -0.6501566 0.33186206 0.68349385
-0.31787848 -0.06393933 -0.18806042 0.3413762 -0.67629534 0.6527533
-0.33060575 -0.046302985 -0.2151816 -0.4677547 0.28274128 -0.8374144
-0.31484818 -0.06393933 -0.2058786 0.53077066 -0.7101421 -0.4625805
-0.3512118 -0.07603023 -0.20269679 -0.72827274 0.4253149 0.53733236
-0.35060573 -0.076454476 -0.20275739 0.38678318 -0.6058656 0.69521624
-0.35090876 -0.07603023 -0.20348465 -0.38736698 0.29692027 -0.872803
-0.35060573 -0.076454476 -0.20324223 0.62433493 -0.522965 -0.5802702
-0.37939358 -0.10745444 -0.196818 -0.4865288 0.5337733 0.6916472
-0.36393905 -0.11672716 -0.19875738 0.7334831 -0.24201916 0.6351608
-0.3754542 -0.10745444 -0.21869676 -0.14801915 0.49823084 -0.8543163
-0.3966663 -0.14554532 -0.1916968 -0.14882824 0.10074265 0.9837179
-0.37787843 -0.15424228 -0.21757555 0.85619235 -0.34498087 -0.3846074
-0.40545416 -0.13684835 -0.22245434 -0.58853257 0.5311071 -0.6095528
-0.40121174 -0.189818 -0.20112102 0.55348647 -0.495533 0.6694025
-0.4512117 -0.20615132 -0.21090889 -0.8702385 0.3153089 0.37850392
-0.43242383 -0.21490888 -0.23693916 0.052442607 -0.08550817 -0.9949564
-0.46727228 -0.24369673 -0.21693918 -0.8986674 0.27061298 0.34520358
-0.44848442 -0.2554543 -0.21366647 0.5347463 -0.651677 0.53792506
-0.45454502 -0.24957553 -0.23448463 0.08831985 -0.23560144 -0.9678283
-0.47818136 -0.28418157 -0.22521192 -0.7539063 -0.3688432 0.5436727
-0.47787833 -0.28439367 -0.2252725 0.13240813 -0.9142127 0.3829923
-0.47818136 -0.28409064 -0.22551493 -0.9672277 0.23807725 -0.08825931
-0.47818136 -0.28418157 -0.22575736 -0.74173224 -0.28668612 -0.6063367
-0.47787833 -0.28433308 -0.22569676 0.21100706 -0.82769966 -0.5199896
0.046121165 -0.06878781 -0.14903016 -0.2855492 -0.8489534 0.44467944
0.045787837 -0.06842417 -0.14927259 -0.9679708 0.022004886 0.25009656
0.04584844 -0.06854539 -0.14954531 -0.6680007 -0.48297167 -0.56613904
0.08569689 -0.060272668 -0.14581804 0.31317058 -0.84742904 0.4287052
0.06378782 -0.03278785 -0.14193925 -0.6558606 0.48359767 0.57963794
0.06939387 -0.046545412 -0.17421196 -0.42163572 -0.15907267 -0.8927033
0.13787866 -0.018799983 -0.17812103 0.46706814 -0.6900444 -0.5528888
0.13824229 -0.01191817 -0.14393926 0.4335942 -0.35581985 0.82788175
0.1937877 0.02796058 -0.16460592 0.8497228 -0.43432862 0.2988809
0.17136347 0.05612116 -0.16066651 -0.2766194 0.809225 0.5183016
0.17709073 0.042030264 -0.19372709 0.013707158 0.18767408 -0.9821358
0.20839374 0.06906054 -0.17503014 0.053156603 0.9425794 0.3297247
0.2079695 0.059302974 -0.17493922 0.03903717 -0.58881027 0.807328
0.20669678 0.06418176 -0.18336347 -0.25011182 0.47589254 -0.8431905
0.22227252 0.029342396 -0.17093922 -0.7606263 -0.50261307 0.41088656
0.23475736 0.04078784 -0.16387863 0.1870106 0.3049083 0.9338404
0.24081795 0.052242372 -0.19309074 0.48064986 0.798151 -0.36322245
0.22836341 0.04078784 -0.20015132 -0.49021032 -0.012481546 -0.8715148
0.28324217 -0.006006055 -0.16796954 0.3817062 0.067383274 0.9218241
0.27533308 -0.006006055 -0.21287858 -0.20961565 -0.06827738 -0.97539705
0.2636967 -0.02240301 -0.18766648 -0.6283133 -0.7718726 0.097134076
0.33575726 -0.046302985 -0.1846968 0.65015686 0.33186185 0.6834938
0.31787848 -0.06393933 -0.18806042 -0.34146085 -0.676274 0.65273106
0.33060575 -0.046302985 -0.2151816 0.46772447 0.28275022 -0.83742833
0.31484818 -0.06393933 -0.2058786 -0.530912 -0.7100567 -0.4625495
0.3512118 -0.07603023 -0.20269679 0.728269 0.42531782 0.5373351
0.35060573 -0.076454476 -0.20275739 -0.38678452 -0.6058702 0.69521147
0.35090876 -0.07603023 -0.20348465 0.3873624 0.29693255 -0.8728009
0.35060573 -0.076454476 -0.20324223 -0.62433726 -0.52296 -0.58027214
0.37939358 -0.10745444 -0.196818 0.48652852 0.53377336 0.69164723
0.36393905 -0.11672716 -0.19875738 -0.73348325 -0.2420189 0.6351607
0.3754542 -0.10745444 -0.21869676 0.14801878 0.498231 -0.85431623
0.37787843 -0.15424228 -0.21757555 -0.8561926 -0.34498057 -0.38460723
0.3966663 -0.14554532 -0.1916968 0.14882818 0.10074257 0.983718
0.40545416 -0.13684835 -0.22245434 0.5885322 0.5311073 -0.6095529
0.40121174 -0.189818 -0.20112102 -0.5534864 -0.4955332 0.66940236
0.4512117 -0.20615132 -0.21090889 0.87023854 0.3153089 0.3785038
0.43242383 -0.21490888 -0.23693916 -0.052443188 -0.085508496 -0.99495625
0.46727228 -0.24369673 -0.21693918 0.8986676 0.27061266 0.3452034
0.44848442 -0.2554543 -0.21366647 -0.5347457 -0.65167755 0.537925
0.45454502 -0.24957553 -0.23448463 -0.08831977 -0.2356017 -0.96782815
0.47818136 -0.28418157 -0.22521192 0.75388944 -0.36886582 0.5436806
0.47787833 -0.28439367 -0.2252725 -0.1324338 -0.91420853 0.3829934
0.47818136 -0.28409064 -0.22551493 0.9672307 0.23806576 -0.0882589
0.47818136 -0.28418157 -0.22575736 0.74173224 -0.28668672 -0.6063365
0.47787833 -0.28433308 -0.22569676 -0.21099737 -0.8276954 -0.5200003
-0.029066639 -0.028930275 0.31363606 -0.92604375 -0.26186055 -0.27179402
0.00023675735 0.011903019 0.35151482 0.4623233 0.22783971 0.85694003
-0.022193918 0.03218179 0.3221209 -0.9149021 0.4033596 0.015974985
0.00023675735 -0.056212068 0.34454513 0.26453018 -0.44911698 0.8534153
0.00023675735 -0.07451508 0.3221209 0.20630202 -0.96691424 -0.15005395
0.00023675735 0.011903019 0.29278758 0.43519437 0.31160685 -0.8446933
-0.011903019 0.045727227 0.3221209 0.095690005 0.9952729 0.01659007
0.02220301 0.03218179 0.3221209 0.9149091 0.4033433 0.015980767
-0.00023675735 0.011903019 0.35151482 -0.46249592 0.22786094 0.85684115
0.02907573 -0.028930275 0.31363606 0.9260447 -0.26190037 -0.2717524
-0.00023675735 -0.056212068 0.34454513 -0.26459536 -0.4490852 0.8534118
-0.00023675735 -0.07451508 0.3221209 -0.20635349 -0.9669026 -0.15005845
-0.00023675735 0.011903019 0.29278758 -0.43531314 0.3116506 -0.8446161
0.011912109 0.045727227 0.3221209 -0.09559001 0.99528235 0.016598154
0.04584844 -0.06854539 0.09054536 -0.83083963 -0.30757305 0.46379325
0.045787837 -0.06842417 0.09027264 -0.97646886 0.0027021468 -0.21564151
0.045939352 -0.06854539 0.089999914 -0.742373 -0.17326742 -0.64719445
0.046121165 -0.06878781 0.090030216 -0.22283933 -0.86574525 -0.44813803
0.046060562 -0.06878781 0.09057567 -0.27943233 -0.8392328 0.4664823
0.060212065 -0.03278785 0.10327263 -0.8499085 0.4255361 0.31076446
0.07648478 -0.046545412 0.074878715 -0.15474151 -0.20315501 -0.9668418
0.088878706 -0.01503938 0.11875746 -0.50134456 0.2950225 0.8133974
0.09599991 -0.01503938 0.07821205 -0.25402734 0.45717502 -0.8523268
0.11472716 -0.0403939 0.09021203 0.54014575 -0.7889623 -0.29288405
0.16451499 0.0038090872 0.12345442 0.43493745 -0.5664581 0.6999675
0.1676968 0.05612116 0.12248473 -0.42136648 0.8016085 0.42411557
0.19012104 0.02796058 0.12645443 0.6197143 -0.48414198 0.6177059
0.18439376 0.042030264 0.09339385 0.36331707 0.17126788 -0.9157881
0.2079695 0.059302974 0.11596958 0.062979005 -0.9192382 -0.3886317
0.20739374 0.06906054 0.12166654 0.017573787 0.93206185 0.36187252
0.20866647 0.06418176 0.11324231 0.20336029 0.583917 -0.7859297
0.2190604 0.029342396 0.1302423 -0.8484631 -0.39205426 0.3555331
0.24081795 0.052242372 0.13409078 0.25679913 0.82268155 0.5071974
0.23475736 0.04078784 0.104848385 -0.0068080802 0.21382892 -0.97684735
0.25969672 0.025366643 0.1472423 0.11289444 0.32866532 0.93767476
0.294727 0.008151507 0.12248473 0.6348827 0.57481855 -0.5162437
0.26781794 -0.020163618 0.11772716 -0.42880982 -0.5739796 -0.69761693
0.31484818 -0.06393933 0.14687864 -0.41153604 -0.81558573 0.40676525
0.31424212 -0.015848469 0.14875743 0.5924067 0.45906815 0.66205037
0.3360603 -0.041666627 0.15060592 0.67780936 0.41319457 0.60814846
0.3299997 -0.05278783 0.122181706 0.39027095 -0.23898877 -0.8891416
0.3512118 -0.07593932 0.1443332 0.6816839 0.51117796 0.52345407
0.35060573 -0.076454476 0.14424229 -0.68018985 -0.55595183 0.47776484
0.35090876 -0.07618175 0.14360592 0.22217274 -0.04984884 -0.97373223
0.38030267 -0.10503021 0.15581805 0.44073147 0.7028428 0.55836165
0.3615148 -0.11672716 0.1525453 -0.88832563 -0.17916319 0.42282152
0.37424207 -0.110878676 0.13512109 0.11965518 0.2862219 -0.9506627
0.38121176 -0.15424228 0.13957562 -0.66803604 -0.36161762 -0.65035415
0.38999963 -0.14554532 0.17036349 -0.20195 0.10031229 0.97424513
0.4087875 -0.13684835 0.14445442 0.7730088 0.513737 -0.37219825
0.39727235 -0.189818 0.16303015 -0.7507553 -0.49841285 0.43353325
0.44787836 -0.20615132 0.17099984 0.68800175 0.31533158 0.6536203
0.4390905 -0.21490888 0.14006048 0.289514 -0.08776661 -0.95314145
0.46515107 -0.24369673 0.17081802 0.72855306 0.27169594 0.62880164
0.4463632 -0.2554543 0.167515 -0.6857365 -0.64951974 0.3284653
0.45909047 -0.24957553 0.14999986 0.2494329 -0.23152736 -0.9403076
0.47818136 -0.28418157 0.1667574 0.6380782 -0.37799716 0.6708013
0.47787833 -0.28439367 0.16657561 -0.18182996 -0.9235597 0.337602
0.47818136 -0.28409064 0.166515 0.9756331 0.21713607 -0.031495247
0.47818136 -0.28418157 0.16624227 0.83976704 -0.3047359 -0.44936323
0.47787833 -0.28433308 0.16618167 -0.119973995 -0.82164365 -0.5572324
0.04633329 -0.06878781 -0.03703027 -0.3297894 -0.862313 0.38425925
0.04603026 -0.06842417 -0.037302993 -0.99190694 0.026145518 0.12424631
0.046121165 -0.06854539 -0.03757572 -0.5912784 -0.4614749 -0.6613854
0.08469689 -0.060272668 -0.026987854 0.2335443 -0.84737897 0.47687086
0.06248479 -0.03278785 -0.026987854 -0.74656546 0.48367834 0.4568316
0.07357568 -0.046545412 -0.05778782 -0.2607228 -0.15905845 -0.95222056
0.14172713 -0.018799983 -0.049757525 0.55574006 -0.6900031 -0.46373346
0.13615139 -0.01191817 -0.016009076 0.28310078 -0.35600254 0.89057064
0.19445436 0.02796058 -0.026721187 0.784815 -0.43443903 0.44195935
0.1716665 0.05612116 -0.026721187 -0.36228153 0.8091662 0.46260363
0.18306042 0.042030264 -0.058302976 0.18374936 0.18777494 -0.9648714
0.21063617 0.06906054 -0.034454513 -0.004847384 0.94245875 0.33428735
0.21021192 0.059302974 -0.034454513 -0.10149076 -0.5914341 0.7999407
0.21042404 0.06418176 -0.042969655 -0.099701464 0.47631514 -0.8736037
0.22360586 0.029342396 -0.028018156 -0.82041013 -0.50277543 0.272294
0.23463614 0.04078784 -0.018878771 0.021030499 0.30424392 0.9523619
0.24569672 0.052242372 -0.046606015 0.5368422 0.79808027 -0.27362064
0.23463614 0.04078784 -0.055757523 -0.33174455 -0.012282764 -0.9432892
0.28312096 -0.006006055 -0.014521198 0.21643089 0.067507125 0.97396123
0.28312096 -0.006006055 -0.060090855 -0.036404427 -0.06854366 -0.9969837
0.26727247 -0.02240301 -0.037302993 -0.6350856 -0.7723233 -0.013528578
0.33787847 -0.046302985 -0.021839375 0.52269995 0.33340684 0.7846175
0.32090878 -0.06393933 -0.02826058 -0.44829655 -0.6758275 0.5850534
0.33787847 -0.046302985 -0.05278783 0.60308945 0.2831079 -0.7457432
0.32090878 -0.06393933 -0.046363592 -0.44355145 -0.7103715 -0.5464745
0.35606027 -0.07603023 -0.03690906 0.6055696 0.36310968 0.708122
0.3554542 -0.076454476 -0.037060574 -0.49146587 -0.5508235 0.6745774
0.35606027 -0.07603023 -0.037727237 0.591056 0.3543154 -0.7246471
0.3554542 -0.076454476 -0.037545417 -0.49960393 -0.5572636 -0.66321427
0.3827269 -0.10745444 -0.026203007 0.35891947 0.5320485 0.76687753
0.36787844 -0.11672716 -0.030818151 -0.83189154 -0.24240495 0.49919555
0.3827269 -0.10745444 -0.0484242 0.29833925 0.49903083 -0.8136103
0.38484812 -0.15424228 -0.046969652 -0.77606076 -0.34360328 -0.528835
0.3987875 -0.14554532 -0.018184831 -0.025426911 0.101230174 0.994538
0.41272688 -0.13684835 -0.046969652 0.684726 0.5308752 -0.49932137
0.4048481 -0.189818 -0.026678763 -0.6628634 -0.4983947 0.55876195
0.45606017 -0.20615132 -0.027609063 0.79235464 0.31576785 0.52198154
0.44181776 -0.21490888 -0.056545403 0.11463193 -0.09047453 -0.98927945
0.47272682 -0.24369673 -0.03078785 0.82444775 0.2705291 0.4970913
0.45393896 -0.2554543 -0.03078785 -0.61816627 -0.6463908 0.44726872
0.4633329 -0.24957553 -0.050242376 0.08162699 -0.23621063 -0.9682673
0.48515105 -0.28418157 -0.03703027 0.6914298 -0.4395425 0.5733473
0.484545 -0.28439367 -0.03715148 -0.3489216 -0.89507174 0.2776693
0.48515105 -0.28409064 -0.037302993 0.97143555 0.23034121 -0.057059467
0.48515105 -0.28418157 -0.03757572 0.7951061 -0.34508282 -0.49872252
0.48484802 -0.28433308 -0.03757572 0.028085366 -0.84981227 -0.5263367
-0.02403634 0.13521199 -0.23436342 -0.23832934 0.8731593 0.42519635
-0.011645443 0.059818123 -0.166515 -0.2281118 0.05520359 0.97206867
0.059090853 0.098212026 -0.22266646 0.65124655 0.56466043 0.5069877
0.035363603 0.019478768 -0.18512104 0.38174692 -0.43192706 0.81713414
0.11539383 0.005669691 -0.2900603 0.88108265 -0.34907052 0.3191285
0.11042414 0.051151466 -0.35999966 0.8068007 0.49543124 -0.32190126
0.0023081796 0.1503332 -0.30666637 -0.040076185 0.9566807 -0.28836778
0.099393845 -0.017284833 -0.42878747 0.8629632 -0.041154526 -0.5035879
0.0075393864 -0.05599995 -0.50848436 0.054600865 0.33247584 -0.9415299
-0.029527243 -0.08139387 -0.50212073 -0.62360615 -0.31712902 -0.7145239
0.022142403 -0.095727175 -0.4990904 0.3808627 -0.7462195 -0.54598534
-0.08115143 0.089787796 -0.24803008 -0.9300459 0.30401537 0.2063718
-0.07927265 -0.08421204 -0.37090874 -0.7308728 -0.6812616 0.04132185
-0.03512118 -0.0464545 -0.2703634 -0.31397995 -0.78361344 0.5360658
3 0 1 2
3 1 3 2
3 2 4 5
3 4 6 5
3 5 6 7
3 7 6 8
3 2 3 9
3 2 9 4
3 4 9 6
3 6 9 8
3 5 0 2
3 5 7 0
3 8 10 7
3 7 10 0
3 0 10 1
3 1 10 11
3 1 11 3
3 10 12 11
3 11 12 3
3 3 12 9
3 10 8 12
3 12 8 9
3 13 14 15
3 15 14 16
3 17 15 16
3 18 19 14
3 14 19 16
3 19 20 16
3 15 17 21
3 15 21 13
3 14 13 18
3 21 22 13
3 13 22 18
3 21 23 22
3 21 24 23
3 23 25 22
3 22 25 18
3 18 25 20
3 18 20 19
3 23 26 25
3 25 26 20
3 23 24 26
3 26 24 27
3 26 27 20
3 20 27 16
3 24 21 27
3 27 21 17
3 27 17 16
3 28 29 30
3 31 32 29
3 29 32 30
3 32 33 30
3 30 33 28
3 28 33 34
3 28 34 35
3 35 34 36
3 28 35 29
3 35 36 29
3 29 36 31
3 36 37 31
3 31 37 32
3 37 38 32
3 32 38 33
3 36 34 37
3 37 34 38
3 38 34 33
3 39 40 41
3 42 43 40
3 40 43 41
3 43 44 41
3 41 44 39
3 39 44 45
3 39 45 46
3 46 45 47
3 39 46 40
3 46 47 40
3 40 47 42
3 47 48 42
3 42 48 43
3 48 49 43
3 43 49 44
3 47 45 48
3 48 45 49
3 49 45 44
3 50 51 52
3 50 52 53
3 51 54 55
3 51 55 52
3 54 56 57
3 54 57 55
3 56 58 59
3 56 59 57
3 58 60 61
3 58 61 59
3 60 50 53
3 60 53 61
3 53 52 62
3 53 62 63
3 52 55 64
3 52 64 62
3 55 57 65
3 55 65 64
3 57 59 66
3 57 66 65
3 59 61 67
3 59 67 66
3 61 53 63
3 61 63 67
3 63 62 68
3 63 68 69
3 62 64 70
3 62 70 68
3 64 65 71
3 64 71 70
3 65 66 72
3 65 72 71
3 66 67 73
3 66 73 72
3 67 63 69
3 67 69 73
3 69 68 74
3 69 74 75
3 68 70 76
3 68 76 74
3 70 71 77
3 70 77 76
3 71 72 78
3 71 78 77
3 72 73 79
3 72 79 78
3 73 69 75
3 73 75 79
3 75 74 80
3 75 80 81
3 74 76 82
3 74 82 80
3 76 77 83
3 76 83 82
3 77 78 84
3 77 84 83
3 78 79 85
3 78 85 84
3 79 75 81
3 79 81 85
3 81 80 86
3 81 86 87
3 80 82 88
3 80 88 86
3 82 83 89
3 82 89 88
3 83 84 90
3 83 90 89
3 84 85 91
3 84 91 90
3 85 81 87
3 85 87 91
3 87 86 92
3 87 92 93
3 86 88 94
3 86 94 92
3 88 89 95
3 88 95 94
3 89 90 96
3 89 96 95
3 90 91 97
3 90 97 96
3 91 87 93
3 91 93 97
3 93 92 98
3 93 98 99
3 92 94 100
3 92 100 98
3 94 95 101
3 94 101 100
3 95 96 102
3 95 102 101
3 96 97 103
3 96 103 102
3 97 93 99
3 97 99 103
3 99 98 104
3 99 104 105
3 98 100 106
3 98 106 104
3 100 101 107
3 100 107 106
3 101 102 108
3 101 108 107
3 102 103 109
3 102 109 108
3 103 99 105
3 103 105 109
3 105 104 110
3 105 110 111
3 104 106 112
3 104 112 110
3 106 107 113
3 106 113 112
3 107 108 114
3 107 114 113
3 108 109 115
3 108 115 114
3 109 105 111
3 109 111 115
3 54 51 50
3 56 54 50
3 58 56 50
3 60 58 50
3 112 113 110
3 113 114 110
3 114 115 110
3 115 111 110
3 116 117 118
3 119 116 118
3 120 121 117
3 116 120 117
3 122 123 121
3 120 122 121
3 124 125 123
3 122 124 123
3 126 127 125
3 124 126 125
3 119 118 127
3 126 119 127
3 128 116 119
3 129 128 119
3 130 120 116
3 128 130 116
3 131 122 120
3 130 131 120
3 132 124 122
3 131 132 122
3 133 126 124
3 132 133 124
3 129 119 126
3 133 129 126
3 134 128 129
3 135 134 129
3 136 130 128
3 134 136 128
3 137 131 130
3 136 137 130
3 138 132 131
3 137 138 131
3 139 133 132
3 138 139 132
3 135 129 133
3 139 135 133
3 140 134 135
3 141 140 135
3 142 136 134
3 140 142 134
3 143 137 136
3 142 143 136
3 144 138 137
3 143 144 137
3 145 139 138
3 144 145 138
3 141 135 139
3 145 141 139
3 146 140 141
3 147 146 141
3 148 142 140
3 146 148 140
3 149 143 142
3 148 149 142
3 150 144 143
3 149 150 143
3 151 145 144
3 150 151 144
3 147 141 145
3 151 147 145
3 152 146 147
3 153 152 147
3 154 148 146
3 152 154 146
3 155 149 148
3 154 155 148
3 156 150 149
3 155 156 149
3 157 151 150
3 156 157 150
3 153 147 151
3 157 153 151
3 158 152 153
3 159 158 153
3 160 154 152
3 158 160 152
3 161 155 154
3 160 161 154
3 162 156 155
3 161 162 155
3 163 157 156
3 162 163 156
3 159 153 157
3 163 159 157
3 164 158 159
3 165 164 159
3 166 160 158
3 164 166 158
3 167 161 160
3 166 167 160
3 168 162 161
3 167 168 161
3 169 163 162
3 168 169 162
3 165 159 163
3 169 165 163
3 170 164 165
3 171 170 165
3 172 166 164
3 170 172 164
3 173 167 166
3 172 173 166
3 174 168 167
3 173 174 167
3 175 169 168
3 174 175 168
3 171 165 169
3 175 171 169
3 176 170 171
3 177 176 171
3 178 172 170
3 176 178 170
3 179 173 172
3 178 179 172
3 180 174 173
3 179 180 173
3 181 175 174
3 180 181 174
3 177 171 175
3 181 177 175
3 118 117 121
3 118 121 123
3 118 123 125
3 118 125 127
3 176 179 178
3 176 180 179
3 176 181 180
3 176 177 181
3 182 183 184
3 182 185 183
3 185 186 183
3 185 182 186
3 182 184 186
3 184 187 188
3 184 183 187
3 186 184 188
3 188 187 189
3 187 190 189
3 187 183 190
3 183 191 190
3 183 186 191
3 186 188 191
3 189 190 192
3 189 192 193
3 190 191 194
3 190 194 192
3 191 188 194
3 188 189 193
3 188 193 194
3 193 195 196
3 193 192 195
3 192 197 195
3 192 194 197
3 194 198 197
3 194 193 196
3 195 199 196
3 198 200 197
3 194 196 201
3 194 201 198
3 196 199 201
3 195 197 199
3 198 201 200
3 201 199 202
3 201 202 203
3 199 197 204
3 199 204 202
3 197 200 204
3 200 205 204
3 200 201 203
3 200 203 205
3 203 202 206
3 203 206 207
3 202 204 208
3 202 208 206
3 204 205 209
3 204 209 208
3 205 203 207
3 205 207 209
3 207 206 210
3 207 210 211
3 206 208 212
3 206 212 210
3 208 209 212
3 209 207 211
3 211 213 214
3 211 210 213
3 210 215 213
3 210 212 215
3 212 214 215
3 212 209 214
3 209 211 214
3 214 213 216
3 216 213 217
3 213 215 217
3 215 218 217
3 215 214 218
3 216 217 219
3 216 219 220
3 217 218 221
3 217 221 219
3 218 214 221
3 214 216 220
3 220 219 222
3 220 222 223
3 219 224 222
3 219 221 224
3 221 225 224
3 221 226 225
3 221 214 226
3 214 220 223
3 214 223 226
3 222 224 225
3 225 226 223
3 223 222 225
3 227 228 229
3 230 231 227
3 227 229 230
3 230 229 232
3 229 228 232
3 228 227 233
3 228 233 232
3 227 231 233
3 230 232 234
3 232 233 235
3 233 231 236
3 231 230 236
3 230 234 237
3 232 235 234
3 233 236 235
3 236 230 237
3 237 234 238
3 237 238 239
3 234 235 238
3 235 240 238
3 235 236 240
3 236 237 239
3 236 239 240
3 239 241 242
3 239 238 241
3 238 240 243
3 238 243 241
3 240 242 243
3 240 239 242
3 242 241 244
3 241 245 244
3 241 243 246
3 241 246 245
3 243 242 246
3 244 245 247
3 245 246 248
3 246 242 249
3 242 244 249
3 249 244 250
3 244 247 250
3 245 248 247
3 246 249 248
3 250 247 251
3 247 248 251
3 250 251 252
3 251 248 253
3 251 253 252
3 248 249 253
3 250 252 254
3 250 254 255
3 252 253 256
3 252 256 254
3 253 249 256
3 249 250 255
3 249 255 256
3 255 254 257
3 255 257 258
3 254 256 259
3 254 259 257
3 256 255 258
3 258 260 261
3 258 257 260
3 257 262 260
3 257 259 262
3 259 261 262
3 259 256 261
3 256 258 261
3 261 260 263
3 263 260 264
3 260 262 264
3 262 265 264
3 262 261 265
3 263 264 266
3 263 266 267
3 264 265 268
3 264 268 266
3 265 261 268
3 261 263 267
3 267 266 269
3 267 269 270
3 266 271 269
3 266 268 271
3 268 272 271
3 268 273 272
3 268 261 273
3 261 267 270
3 261 270 273
3 269 271 272
3 272 273 270
3 270 269 272
3 274 275 276
3 274 277 275
3 277 278 275
3 277 276 278
3 277 274 276
3 276 279 280
3 276 275 279
3 278 276 280
3 280 279 281
3 279 282 281
3 279 275 282
3 275 283 282
3 275 278 283
3 278 280 283
3 281 282 284
3 281 284 285
3 282 283 286
3 282 286 284
3 283 280 286
3 280 281 285
3 280 285 286
3 285 287 288
3 285 284 287
3 284 289 287
3 284 286 289
3 286 290 289
3 286 285 288
3 287 291 288
3 290 292 289
3 286 288 293
3 286 293 290
3 288 291 293
3 287 289 291
3 290 293 292
3 293 291 294
3 293 294 295
3 291 289 296
3 291 296 294
3 289 292 296
3 292 297 296
3 292 293 295
3 292 295 297
3 295 294 298
3 295 298 299
3 294 296 300
3 294 300 298
3 296 297 301
3 296 301 300
3 297 295 299
3 297 299 301
3 299 298 302
3 299 302 303
3 298 300 304
3 298 304 302
3 300 301 304
3 301 299 303
3 303 305 306
3 303 302 305
3 302 307 305
3 302 304 307
3 304 306 307
3 304 301 306
3 301 303 306
3 306 305 308
3 308 305 309
3 305 307 309
3 307 310 309
3 307 306 310
3 308 309 311
3 308 311 312
3 309 310 313
3 309 313 311
3 310 306 313
3 306 308 312
3 312 311 314
3 312 314 315
3 311 316 314
3 311 313 316
3 313 317 316
3 313 318 317
3 313 306 318
3 306 312 315
3 306 315 318
3 314 316 317
3 317 318 315
3 315 314 317
3 319 320 321
3 322 323 319
3 323 320 319
3 324 321 320
3 323 324 320
3 324 322 321
3 322 319 321
3 325 326 322
3 326 323 322
3 325 322 324
3 327 326 325
3 327 328 326
3 328 323 326
3 328 329 323
3 329 324 323
3 329 325 324
3 330 328 327
3 331 330 327
3 332 329 328
3 330 332 328
3 332 325 329
3 331 327 325
3 332 331 325
3 333 334 331
3 334 330 331
3 334 335 330
3 335 332 330
3 335 336 332
3 333 331 332
3 333 337 334
3 335 338 336
3 339 333 332
3 336 339 332
3 339 337 333
3 337 335 334
3 338 339 336
3 340 337 339
3 341 340 339
3 342 335 337
3 340 342 337
3 342 338 335
3 342 343 338
3 341 339 338
3 343 341 338
3 344 340 341
3 345 344 341
3 346 342 340
3 344 346 340
3 347 343 342
3 346 347 342
3 345 341 343
3 347 345 343
3 348 344 345
3 349 348 345
3 350 346 344
3 348 350 344
3 350 347 346
3 349 345 347
3 351 352 349
3 352 348 349
3 352 353 348
3 353 350 348
3 353 351 350
3 351 347 350
3 351 349 347
3 354 352 351
3 355 352 354
3 355 353 352
3 355 356 353
3 356 351 353
3 357 355 354
3 358 357 354
3 359 356 355
3 357 359 355
3 359 351 356
3 358 354 351
3 360 357 358
3 361 360 358
3 360 362 357
3 362 359 357
3 362 363 359
3 363 364 359
3 364 351 359
3 361 358 351
3 364 361 351
3 363 362 360
3 361 364 363
3 363 360 361
3 365 366 367
3 365 368 366
3 368 365 369
3 365 370 369
3 365 367 370
3 367 371 370
3 367 366 371
3 368 369 370
3 368 370 371
3 368 371 366
3 372 373 374
3 373 375 374
3 376 374 375
3 376 377 374
3 377 372 374
3 377 378 372
3 378 373 372
3 377 376 375
3 378 377 375
3 373 378 375
3 379 380 381
3 381 382 383
3 383 379 381
3 384 379 383
3 384 380 379
3 384 385 380
3 385 381 380
3 385 382 381
3 386 384 383
3 387 385 384
3 388 382 385
3 388 383 382
3 389 386 383
3 386 387 384
3 387 388 385
3 389 383 388
3 390 386 389
3 391 390 389
3 390 387 386
3 390 392 387
3 392 388 387
3 391 389 388
3 392 391 388
3 393 394 391
3 394 390 391
3 395 392 390
3 394 395 390
3 395 393 392
3 393 391 392
3 396 394 393
3 396 397 394
3 398 395 394
3 397 398 394
3 398 393 395
3 399 397 396
3 400 398 397
3 401 393 398
3 401 396 393
3 402 396 401
3 402 399 396
3 399 400 397
3 400 401 398
3 403 399 402
3 403 400 399
3 404 403 402
3 405 400 403
3 404 405 403
3 405 401 400
3 406 404 402
3 407 406 402
3 408 405 404
3 406 408 404
3 408 401 405
3 407 402 401
3 408 407 401
3 409 406 407
3 410 409 407
3 411 408 406
3 409 411 406
3 410 407 408
3 412 413 410
3 413 409 410
3 413 414 409
3 414 411 409
3 414 412 411
3 412 408 411
3 412 410 408
3 415 413 412
3 416 413 415
3 416 414 413
3 416 417 414
3 417 412 414
3 418 416 415
3 419 418 415
3 420 417 416
3 418 420 416
3 420 412 417
3 419 415 412
3 421 418 419
3 422 421 419
3 421 423 418
3 423 420 418
3 423 424 420
3 424 425 420
3 425 412 420
3 422 419 412
3 425 422 412
3 424 423 421
3 422 425 424
3 424 421 422
3 426 427 428
3 429 430 426
3 430 427 426
3 431 428 427
3 430 431 427
3 431 429 428
3 429 426 428
3 432 433 429
3 433 430 429
3 432 429 431
3 434 433 432
3 434 435 433
3 435 430 433
3 435 436 430
3 436 431 430
3 436 432 431
3 437 435 434
3 438 437 434
3 439 436 435
3 437 439 435
3 439 432 436
3 438 434 432
3 439 438 432
3 440 441 438
3 441 437 438
3 441 442 437
3 442 439 437
3 442 443 439
3 440 438 439
3 440 444 441
3 442 445 443
3 446 440 439
3 443 446 439
3 446 444 440
3 444 442 441
3 445 446 443
3 447 444 446
3 448 447 446
3 449 442 444
3 447 449 444
3 449 445 442
3 449 450 445
3 448 446 445
3 450 448 445
3 451 447 448
3 452 451 448
3 453 449 447
3 451 453 447
3 454 450 449
3 453 454 449
3 452 448 450
3 454 452 450
3 455 451 452
3 456 455 452
3 457 453 451
3 455 457 451
3 457 454 453
3 456 452 454
3 458 459 456
3 459 455 456
3 459 460 455
3 460 457 455
3 460 458 457
3 458 454 457
3 458 456 454
3 461 459 458
3 462 459 461
3 462 460 459
3 462 463 460
3 463 458 460
3 464 462 461
3 465 464 461
3 466 463 462
3 464 466 462
3 466 458 463
3 465 461 458
3 467 464 465
3 468 467 465
3 467 469 464
3 469 466 464
3 469 470 466
3 470 471 466
3 471 458 466
3 468 465 458
3 471 468 458
3 470 469 467
3 468 471 470
3 470 467 468
3 472 473 474
3 473 475 474
3 475 476 474
3 474 476 477
3 474 478 472
3 474 477 478
3 477 476 479
3 477 479 480
3 477 480 478
3 478 480 481
3 479 482 480
3 480 482 481
3 478 483 472
3 472 483 473
3 478 481 483
3 483 481 484
3 483 484 473
3 484 485 473
3 473 485 475
3 475 485 476
3 484 481 482
3 484 482 485
3 485 482 476
3 482 479 476
